<svg xmlns="http://www.w3.org/2000/svg" viewBox="0 0 2560 1280.2" style="enable-background:new 0 0 2560 1280.2" xml:space="preserve"><style>.st0{fill:none;stroke:#000;stroke-width:2;stroke-miterlimit:10}</style><path class="st0" d="M0 1280.2c22.4-19.2 48.3-59.2 108.5-119.3 61.1-61.1 147.3-65.5 234.7-76.4 201.5-25 173.1-245.8 296.3-245.8 135.1 0 1920.6 441.5 1920.6 441.5" id="line6"/><path class="st0" d="M-.8 1060.4s119.7 5.4 271.3-78.3c122.4-67.6 169.1-235.2 368.9-227.7 225.4 8.4 1920.6 269.8 1920.6 269.8" id="line5"/><path class="st0" d="M-.8 768.1s99.5 30.6 233 1.3 301.7-94.5 407.2-91.2c211.1 6.6 1920.6 89.9 1920.6 89.9" id="line4"/><path class="st0" d="M0 554s140.6-109.6 298.7-79.3C420.7 498.2 553.2 602 639.4 602c197.8 0 1920.6-89.9 1920.6-89.9" id="line3"/><path class="st0" d="M0 239s90.2 113 440.9 168.4c93.3 14.8 139 118.4 198.5 118.4C833.3 525.8 2560 256 2560 256" id="line2"/><path class="st0" d="M0 0c41.6 28.6 58.1 33.2 191.4 69.9 78 21.5 125.3 89.3 180 179.6 49.7 82.1 63.8 85.8 116.6 92.3 70.6 8.7 69.4 99.5 151.4 99.5S2560 0 2560 0" id="line1"/></svg>