<?xml version="1.0" encoding="utf-8"?>
<!-- Generator: Adobe Illustrator 25.4.1, SVG Export Plug-In . SVG Version: 6.00 Build 0)  -->
<svg version="1.1" xmlns="http://www.w3.org/2000/svg" xmlns:xlink="http://www.w3.org/1999/xlink" x="0px" y="0px"
	 viewBox="0 0 2560 1280.2" style="enable-background:new 0 0 2560 1280.2;" xml:space="preserve">
<style type="text/css">
	.st0{fill:none;stroke:#000000;stroke-width:2;stroke-miterlimit:10;}
</style>
<g id="line6">
	<path id="line6_00000119102552971735996550000011499024074696517520_" class="st0" d="M0,1280.6c0,0,71.7-123.4,177-166
		c105.4-42.6,182.3,9.9,286-82.2s61.4-193.8,169.8-193.8s1927.2,442,1927.2,442"/>
</g>
<g id="line5">
	<path id="line5_00000170959092771858963040000003367438344950994617_" class="st0" d="M0,1019.5c0,0,103,38.1,242.7-29.7
		S495.7,772,632.8,772S2560,1024.4,2560,1024.4"/>
</g>
<g id="line4">
	<path id="line4_00000123435989788130741370000007905818124937930675_" class="st0" d="M0,689c0,0,43.9,100.7,177,118.5
		s303.9-122.9,455.8-122.9S2560,768.2,2560,768.2"/>
</g>
<g id="line3">
	<path id="line3_00000016775545169583944320000015622565943764033718_" class="st0" d="M0,503.3c0,0,181.3-77.3,333.9-29.7
		s153.9,118.9,298.9,118.9S2560,512,2560,512"/>
</g>
<g id="line2">
	<path id="line2_00000092455734482227303090000007032956041911338636_" class="st0" d="M0,321c0,0,354.4,0.3,463,82.9
		s90.2,104.4,169.8,104.4S2560,255.8,2560,255.8"/>
</g>
<g id="line1">
	<path id="line1_00000036952001402850004700000013157390584818509451_" class="st0" d="M0,0c0,0,8.2,25,177,64
		s172.4,261.9,286,272.8s73.3,104.4,169.8,104.4S2560-0.4,2560-0.4"/>
</g>
</svg>
